<?xml version="1.0" encoding="utf-8"?>
<!-- Generator: Adobe Illustrator 27.6.1, SVG Export Plug-In . SVG Version: 6.00 Build 0)  -->
<svg version="1.1" id="Layer_1" xmlns="http://www.w3.org/2000/svg" xmlns:xlink="http://www.w3.org/1999/xlink" x="0px" y="0px"
	 viewBox="0 0 117.7 164.2" style="enable-background:new 0 0 117.7 164.2;" xml:space="preserve">
<g>
	<path d="M20,15.4h14.3l0.5,13.2h7.6l0.7-13.2h15.8l-1.7,38.7H43l-0.6-12.5h-7.6l0.3,12.5H19.4L20,15.4z"/>
	<path d="M74.9,53.9c-8.1-3.5-11.8-11.3-12.5-18.6c0.3-11.2,7-16.9,13.4-19.7l14.4-0.2c10.2,2.7,13,11.2,13.5,19
		c-0.7,8.3-3.1,16.3-11.1,19.4l-9.1,0.3L74.9,53.9z M78.8,30.8c-2.7,5.3,1.2,8.6,3.4,8.6c3.4,0.1,4.9-1.3,5.7-4.7
		C87.4,31.1,83.7,26.3,78.8,30.8z"/>
	<path d="M19.3,58.1h13.3l8.7,11.1l7.9-11.1h13.2l-0.9,38.7h-14l-1.1-13.2l-6.8,8l-5.5-7.6l-0.7,12.8H18.7L19.3,58.1z"/>
	<path d="M68.4,58.2l29.3-0.1l0.1,11l-14.6,0.7l0.1,2.5l14.5,0.9l-0.4,8.3l-13.1,1.2l0.1,2.2l13,1.2l0.1,10.6H72.4l-3.3-1.3
		L68.4,58.2z"/>
</g>
<g>
	<g>
		<g>
			<path d="M23.2,122c-0.3-0.1-0.6-0.2-1-0.2c-0.5,0-0.8,0.1-1,0.2c-0.2,0.2-0.4,0.4-0.4,0.7c0,0.4,0.3,0.7,0.9,0.9l1.8,0.5
				c0.7,0.2,1.2,0.5,1.5,0.9c0.3,0.4,0.5,0.9,0.5,1.5c0,0.5-0.1,1-0.4,1.4c-0.3,0.4-0.7,0.7-1.2,0.9c-0.5,0.2-1.1,0.3-1.8,0.3
				c-0.8,0-1.5-0.1-2.1-0.4c-0.6-0.3-1.1-0.6-1.4-1.1c0-0.1,0-0.1,0-0.1c0-0.1,0-0.1,0.1-0.2l0.9-0.6c0.1,0,0.1-0.1,0.2-0.1
				c0.1,0,0.1,0,0.2,0.1c0.3,0.4,0.6,0.6,0.8,0.8c0.3,0.2,0.7,0.2,1.1,0.2c0.5,0,0.9-0.1,1.2-0.2c0.3-0.2,0.4-0.4,0.4-0.7
				c0-0.2-0.1-0.4-0.2-0.5c-0.1-0.1-0.4-0.3-0.7-0.4l-1.7-0.5c-0.6-0.2-1.1-0.5-1.5-0.9c-0.4-0.4-0.5-0.9-0.5-1.5
				c0-0.5,0.1-0.9,0.4-1.3c0.3-0.4,0.6-0.7,1.1-0.9c0.5-0.2,1.1-0.3,1.7-0.3c0.6,0,1.2,0.1,1.7,0.3c0.5,0.2,0.9,0.5,1.2,0.9
				c0,0.1,0.1,0.1,0.1,0.2c0,0,0,0.1-0.1,0.1l-0.9,0.7c0,0-0.1,0-0.1,0c0,0-0.1,0-0.2-0.1C23.7,122.3,23.5,122.1,23.2,122z"/>
			<path d="M55,120.5h5.7c0.1,0,0.2,0.1,0.2,0.2l0,1c0,0.2-0.1,0.2-0.2,0.2H57c-0.1,0-0.2,0.1-0.2,0.2v1.6c0,0.1,0.1,0.2,0.2,0.2
				h2.4c0.1,0,0.2,0.1,0.2,0.2v1.1c0,0.1-0.1,0.2-0.2,0.2h-2.4c-0.1,0-0.2,0-0.2,0.1v1.8c0,0.1,0,0.1,0,0.1s0.1,0,0.1,0h3.9
				c0.1,0,0.2,0.1,0.2,0.2v1.1c0,0.1-0.1,0.2-0.2,0.2H55c-0.1,0-0.2,0-0.2-0.1c0,0-0.1-0.1-0.1-0.2v-7.9
				C54.8,120.6,54.9,120.5,55,120.5z"/>
			<path d="M89.8,128.7c0-0.1,0-0.1,0-0.1l2.8-7.8c0-0.1,0.1-0.1,0.1-0.2c0,0,0.1-0.1,0.2-0.1h1.7c0.1,0,0.2,0,0.2,0.1
				c0.1,0,0.1,0.1,0.1,0.2l2.8,7.8c0,0,0,0.1,0,0.1c0,0.1,0,0.1,0,0.1c0,0-0.1,0.1-0.1,0.1H96c-0.1,0-0.2-0.1-0.2-0.2l-0.6-1.6
				c0,0,0-0.1-0.1-0.1c0,0-0.1,0-0.1,0h-2.8c-0.1,0-0.1,0-0.1,0.1l-0.6,1.7c0,0.1-0.1,0.1-0.2,0.1H90
				C89.9,128.9,89.8,128.8,89.8,128.7z M94.6,125.5c0.1,0,0.1,0,0.1-0.1c0,0,0-0.1,0-0.1l-0.9-2.6c0,0,0-0.1-0.1-0.1
				c0,0,0,0-0.1,0.1l-1,2.6c0,0,0,0.1,0,0.1c0,0.1,0,0.1,0.1,0.1H94.6z"/>
		</g>
	</g>
	<g>
		<g>
			<path d="M23.2,141.7c-0.3-0.1-0.6-0.2-1-0.2c-0.5,0-0.8,0.1-1,0.2c-0.2,0.2-0.4,0.4-0.4,0.7c0,0.4,0.3,0.7,0.9,0.9l1.8,0.5
				c0.7,0.2,1.2,0.5,1.5,0.9c0.3,0.4,0.5,0.9,0.5,1.5c0,0.5-0.1,1-0.4,1.4c-0.3,0.4-0.7,0.7-1.2,0.9c-0.5,0.2-1.1,0.3-1.8,0.3
				c-0.8,0-1.5-0.1-2.1-0.4c-0.6-0.3-1.1-0.6-1.4-1.1c0-0.1,0-0.1,0-0.1c0-0.1,0-0.1,0.1-0.2l0.9-0.6c0.1,0,0.1-0.1,0.2-0.1
				c0.1,0,0.1,0,0.2,0.1c0.3,0.4,0.6,0.6,0.8,0.8c0.3,0.2,0.7,0.2,1.1,0.2c0.5,0,0.9-0.1,1.2-0.2c0.3-0.2,0.4-0.4,0.4-0.7
				c0-0.2-0.1-0.4-0.2-0.5c-0.1-0.1-0.4-0.3-0.7-0.4l-1.7-0.5c-0.6-0.2-1.1-0.5-1.5-0.9c-0.4-0.4-0.5-0.9-0.5-1.5
				c0-0.5,0.1-0.9,0.4-1.3c0.3-0.4,0.6-0.7,1.1-0.9c0.5-0.2,1.1-0.3,1.7-0.3c0.6,0,1.2,0.1,1.7,0.3c0.5,0.2,0.9,0.5,1.2,0.9
				c0,0.1,0.1,0.1,0.1,0.2c0,0,0,0.1-0.1,0.1l-0.9,0.7c0,0-0.1,0-0.1,0c0,0-0.1,0-0.2-0.1C23.7,142,23.5,141.9,23.2,141.7z"/>
			<path d="M46.1,140.3c0.1,0,0.2,0.1,0.2,0.2v7.9c0,0.1,0,0.2-0.1,0.2c0,0-0.1,0.1-0.2,0.1h-1.4c-0.1,0-0.2,0-0.2-0.1
				s-0.1-0.1-0.1-0.2v-7.9c0-0.1,0.1-0.2,0.2-0.2H46.1z"/>
			<path d="M68.3,140.3c1.5,0,2.6,0.4,3.3,1.1c0.7,0.7,1.1,1.7,1.1,3c0,1.3-0.4,2.4-1.1,3.1c-0.8,0.7-1.9,1.1-3.3,1.1h-2.4
				c-0.1,0-0.2,0-0.2-0.1c0,0-0.1-0.1-0.1-0.2v-7.9c0-0.1,0-0.1,0.1-0.2c0,0,0.1-0.1,0.2-0.1C67,140.3,67.8,140.3,68.3,140.3z
				 M67.5,141.8v5.3c0,0.1,0,0.1,0,0.1c0,0,0.1,0,0.1,0h0.2c0.9,0,1.6-0.2,2.1-0.7c0.5-0.4,0.7-1.2,0.7-2.2c0-0.9-0.2-1.6-0.6-2
				c-0.4-0.4-1-0.6-1.8-0.7l-0.7,0C67.5,141.7,67.5,141.7,67.5,141.8z"/>
			<path d="M91.7,140.3h5.7c0.1,0,0.2,0.1,0.2,0.2l0,1c0,0.2-0.1,0.2-0.2,0.2h-3.6c-0.1,0-0.2,0.1-0.2,0.2v1.6
				c0,0.1,0.1,0.2,0.2,0.2h2.4c0.1,0,0.2,0.1,0.2,0.2v1.1c0,0.1-0.1,0.2-0.2,0.2h-2.4c-0.1,0-0.2,0-0.2,0.1v1.8c0,0.1,0,0.1,0,0.1
				c0,0,0.1,0,0.1,0h3.9c0.1,0,0.2,0.1,0.2,0.2v1.1c0,0.1-0.1,0.2-0.2,0.2h-5.7c-0.1,0-0.2,0-0.2-0.1s-0.1-0.1-0.1-0.2v-7.9
				C91.6,140.3,91.6,140.3,91.7,140.3z"/>
		</g>
	</g>
</g>
</svg>
